<?xml version="1.0" encoding="UTF-8" standalone="no"?>
<svg width="11px" height="16px" viewBox="0 0 11 16" version="1.1" xmlns="http://www.w3.org/2000/svg" xmlns:xlink="http://www.w3.org/1999/xlink">
    <!-- Generator: sketchtool 40 (33762) - http://www.bohemiancoding.com/sketch -->
    <title>5A250CBF-0845-4714-8E8D-46468F1636BE</title>
    <desc>Created with sketchtool.</desc>
    <defs></defs>
    <g id="-Extended-Input-Concept-V2-Buyer" stroke="none" stroke-width="1" fill="none" fill-rule="evenodd">
        <g id="Extended-Input-Concept-1" transform="translate(-429.000000, -430.000000)" fill="#6DBF88">
            <g id="Hero-Area" transform="translate(364.000000, 312.000000)">
                <g id="Find-An-Agent">
                    <path d="M70.5,118 C67.4624286,118 65,120.5072 65,123.6 C65,127.6 70.5,134 70.5,134 C70.5,134 76,127.6 76,123.6 C76,120.5072 73.5375714,118 70.5,118 L70.5,118 Z M70.5,125.6 C69.4157143,125.6 68.5357143,124.7048 68.5357143,123.6 C68.5357143,122.4952 69.4157143,121.6 70.5,121.6 C71.5850714,121.6 72.4642857,122.4952 72.4642857,123.6 C72.4642857,124.7048 71.5850714,125.6 70.5,125.6 L70.5,125.6 Z" id="Shape"></path>
                </g>
            </g>
        </g>
    </g>
</svg>