<?xml version="1.0" encoding="UTF-8" standalone="no"?>
<svg width="16px" height="16px" viewBox="0 0 16 16" version="1.1" xmlns="http://www.w3.org/2000/svg" xmlns:xlink="http://www.w3.org/1999/xlink">
    <!-- Generator: sketchtool 40 (33762) - http://www.bohemiancoding.com/sketch -->
    <title>06A3518F-6A77-4E3A-9356-ED3A4FAC39A4</title>
    <desc>Created with sketchtool.</desc>
    <defs></defs>
    <g id="Symbols" stroke="none" stroke-width="1" fill="none" fill-rule="evenodd">
        <g id="Landing-Page-/-01-Top-Bar" transform="translate(-1234.000000, -30.000000)">
            <g id="01-Top-Bar">
                <g>
                    <g id="Group-30" transform="translate(1234.000000, 29.000000)">
                        <g id="phone-5.2.3.1" transform="translate(0.000000, 1.000000)">
                            <g id="Group">
                                <g id="Filled_Icons_1_" transform="translate(0.000000, 0.666667)" fill="#6DBF88">
                                    <g id="Filled_Icons" transform="translate(0.000000, -0.000000)">
                                        <path d="M14.666,11.1273333 L13.0306667,9.492 C12.3633333,8.824 11.2826667,8.824 10.614,9.492 L10.176,9.93 C8.46266667,8.51266667 6.81733333,6.86733333 5.40333333,5.15666667 L5.84133333,4.71866667 C6.50733333,4.05266667 6.50733333,2.96866667 5.84133333,2.30266667 L4.206,0.667333333 C3.53866667,-0.000666666667 2.45733333,-0.000666666667 1.78933333,0.667333333 L0.892,1.56466667 C0.0633333333,2.39266667 -0.0686666667,3.70533333 0.578666667,4.68466667 C3.20133333,8.64933333 6.68333333,12.1313333 10.6486667,14.754 C11.6153333,15.3933333 12.9213333,15.2893333 13.7686667,14.4406667 L14.666,13.5433333 C15.3353333,12.876 15.3326667,11.7933333 14.666,11.1273333 L14.666,11.1273333 Z" id="Shape"></path>
                                    </g>
                                </g>
                                <g id="Invisible_Shape">
                                    <rect id="Rectangle-path" x="0" y="0" width="16" height="16"></rect>
                                </g>
                            </g>
                        </g>
                    </g>
                </g>
            </g>
        </g>
    </g>
</svg>